<svg width="100px" height="100px" id="图层_1" data-name="图层 1" xmlns="http://www.w3.org/2000/svg" viewBox="0 0 86.24 62.93" opacity="0.300000012"><defs><style>.cls-1{fill:#6FC1FE}</style></defs><path class="cls-1" d="M17.08 25.1l-.73-1.21a1.47 1.47 0 0 1 .36-2 1.2 1.2 0 0 1 1.52 1.87zm-.43-2.19a.86.86 0 0 0 .23.48.78.78 0 0 0 1 .16.57.57 0 0 0 .25-.63l-.87.49-.59-.58a.22.22 0 0 1 0 .08l-.18-.16z" id="Fill-3" fill="#6FC1FE"/><path class="cls-1" d="M38.4 14.9a3.2 3.2 0 0 1-1.4-.33 2.09 2.09 0 0 1-1.13-1.7V12a1.83 1.83 0 0 1 .76-1.45 3.58 3.58 0 0 1 2.09-.66h8.92a3.61 3.61 0 0 1 2.11.66A1.83 1.83 0 0 1 50.5 12v.8a2.1 2.1 0 0 1-1.13 1.76 3.08 3.08 0 0 1-1.59.32H38.4zm9.53-2a1.23 1.23 0 0 0 .54-.12v-.65a.17.17 0 0 0-.06-.06 2.34 2.34 0 0 0-.81-.17h-8.9a2.13 2.13 0 0 0-.8.17l-.06.06v.68a1.58 1.58 0 0 0 .59.09h9.48z" id="Fill-9" fill="#6FC1FE"/><path fill="#6FC1FE" class="cls-1" d="M11.94 24.69a1.66 1.66 0 0 1-.75-.18 18.93 18.93 0 0 1-2.87-2l-.08-.07-6.5-6.88C1.27 15.09.42 14.15.6 13.2A5.12 5.12 0 0 1 2 11.05 5.39 5.39 0 0 1 4.15 9.6a3.2 3.2 0 0 1 2.44 1l6.76 6.67a21.15 21.15 0 0 1 2.18 2.83 1.57 1.57 0 0 1 0 1.54 6.83 6.83 0 0 1-1.21 1.6 7 7 0 0 1-1.55 1.2 1.75 1.75 0 0 1-.83.25zM9.66 21a16.78 16.78 0 0 0 2.27 1.65 5.21 5.21 0 0 0 1-.77 4.73 4.73 0 0 0 .76-1 20.25 20.25 0 0 0-1.76-2.21l-6.72-6.6a3.37 3.37 0 0 0-.71-.49 6.64 6.64 0 0 0-1 .88 6.93 6.93 0 0 0-.84 1 3.77 3.77 0 0 0 .53.63zm4.12.11zm0-.39zm-9.35-9.16z" id="Stroke-11"/><path fill="#6FC1FE" class="cls-1" d="M74.21 24.69a1.65 1.65 0 0 1-.83-.23 6.86 6.86 0 0 1-1.58-1.21 6.76 6.76 0 0 1-1.18-1.58 1.59 1.59 0 0 1 0-1.54 20.36 20.36 0 0 1 2.15-2.79l6.77-6.69A3.23 3.23 0 0 1 82 9.6a5.39 5.39 0 0 1 2.12 1.45 5.12 5.12 0 0 1 1.43 2.15c.18 1-.66 1.89-1.18 2.37l-6.54 6.91a18.93 18.93 0 0 1-2.87 2 1.66 1.66 0 0 1-.75.21zm-1.72-3.79a4.91 4.91 0 0 0 .73.94 5 5 0 0 0 1 .8A16.78 16.78 0 0 0 76.49 21L83 14.15a3.5 3.5 0 0 0 .58-.68 7.09 7.09 0 0 0-.84-1 5.73 5.73 0 0 0-1.06-.87 3.12 3.12 0 0 0-.72.51l-6.71 6.63a20.28 20.28 0 0 0-1.76 2.16zm-1-.28zm10.23-9.06z" id="Stroke-13"/><path fill="#6FC1FE" class="cls-1" d="M4 51.52a1.63 1.63 0 0 1-.31 0A5.47 5.47 0 0 1 1.54 50a5.09 5.09 0 0 1-1.43-2.11c-.18-1 .67-1.9 1.18-2.38l6.64-5.42c.09-.06 2.15-1.42 3.24-2a1.67 1.67 0 0 1 1.58 0 7 7 0 0 1 1.58 1.22A6.56 6.56 0 0 1 15.51 41a1.55 1.55 0 0 1 0 1.53 10.85 10.85 0 0 1-2.45 2.57L6 50.52a3.44 3.44 0 0 1-2 1zm0-2zm-1.88-1.9a6.7 6.7 0 0 0 .84 1A6.31 6.31 0 0 0 4 49.5a3.09 3.09 0 0 0 .74-.5l7.1-5.49a10.36 10.36 0 0 0 1.8-1.77 4.86 4.86 0 0 0-.73-.92 5.54 5.54 0 0 0-1-.81c-.94.5-2.56 1.55-2.84 1.73L2.61 47a3.31 3.31 0 0 0-.49.62zM14.64 42z" id="Stroke-15"/><path fill="#6FC1FE" class="cls-1" d="M82.44 51.53a3.82 3.82 0 0 1-2-.84l-7.12-5a19.18 19.18 0 0 1-2.44-2.54 1.56 1.56 0 0 1-.17-1.52 7.13 7.13 0 0 1 1-1.73 6.66 6.66 0 0 1 1.41-1.35 1.69 1.69 0 0 1 1.57-.22 19.1 19.1 0 0 1 3.07 1.71l6.9 5.18c.56.42 1.5 1.27 1.43 2.24a5.32 5.32 0 0 1-1.19 2.28 5.45 5.45 0 0 1-2 1.68 1.69 1.69 0 0 1-.46.11zm-7.88-7.34l7 4.87a3.4 3.4 0 0 0 .81.45A7.14 7.14 0 0 0 84 47.43a3.21 3.21 0 0 0-.59-.57l-6.82-5.16a17.81 17.81 0 0 0-2.45-1.4 5.31 5.31 0 0 0-1.53 1.91 20.48 20.48 0 0 0 1.95 1.98zM72.47 42z" id="Stroke-17"/><path fill="#6FC1FE" class="cls-1" d="M18.82 49.28a4.83 4.83 0 0 1-2.36-.73 16.29 16.29 0 0 1-3.55-3.48 1 1 0 0 1 .16-1.4 1 1 0 0 1 1.41.16 14.94 14.94 0 0 0 2.93 3c.43.24 1.39.72 1.86.36a5.83 5.83 0 0 0-.64-1.19c-1.08-1-3.53-2.81-3.55-2.83a1 1 0 0 1 1.2-1.6c.11.08 2.67 2 3.76 3l.13.14c1.69 2.24 1 3.47.38 4a2.8 2.8 0 0 1-1.73.57z" id="Stroke-19"/><path fill="#6FC1FE" class="cls-1" d="M67.18 50a2.65 2.65 0 0 1-1.64-.53c-.66-.6-1.38-1.83.3-4.07l.13-.14a55.88 55.88 0 0 1 5.16-3.51 1 1 0 0 1 1.38.32 1 1 0 0 1-.33 1.38c-1 .64-3.88 2.45-4.8 3.23-.65.9-.58 1.24-.57 1.24.41.31 1.37-.17 1.76-.4a21.28 21.28 0 0 0 3.6-3.73 1 1 0 0 1 1.4-.16 1 1 0 0 1 .16 1.41c-.47.58-2.88 3.55-4.2 4.24a4.8 4.8 0 0 1-2.35.72z" id="Stroke-19-2" data-name="Stroke-19"/><path fill="#6FC1FE" class="cls-1" d="M38 52.86a2.28 2.28 0 0 1-.75-.13 17.47 17.47 0 0 1-2-.78c-1.6-.72-6.24-2.57-8.15-2.38a8.88 8.88 0 0 0-3.35.73h-.05a.89.89 0 0 0-.14.41 2.08 2.08 0 0 1-1.7 1.64 9.85 9.85 0 0 1-1.1.16 14.45 14.45 0 0 1-3.67 0 3.93 3.93 0 0 1-2-1l-.21-.16a29 29 0 0 1-4.61-5.06 1 1 0 0 1 1.62-1.17 27.77 27.77 0 0 0 4.21 4.65l.22.17a2 2 0 0 0 1.13.58 12.45 12.45 0 0 0 3.14 0h.14c.13 0 .43-.06.7-.11a1.16 1.16 0 0 0 .19-.09 2.38 2.38 0 0 1 1.13-1.76 10.07 10.07 0 0 1 4.18-1c2.77-.31 8.54 2.27 9.19 2.56a18.51 18.51 0 0 0 1.77.7c.33.11.73-.49.74-.49l.05-.09 2.12-2.82a1.62 1.62 0 0 1 1.43-.64h1.67a1.62 1.62 0 0 1 1.38.65c.11.16 1.36 1.81 2.11 2.82l.07.09s.4.6.73.49a16.66 16.66 0 0 0 1.81-.68c.67-.3 6.45-2.88 9.24-2.57a10 10 0 0 1 4.15 1 2.35 2.35 0 0 1 1.13 1.76 1.47 1.47 0 0 0 .29.11c.18 0 .48.08.62.09h.12a12.53 12.53 0 0 0 3.15 0 2 2 0 0 0 1.07-.54l.23-.2a20.31 20.31 0 0 0 3.41-3.49A1 1 0 0 1 75 47.49a21.28 21.28 0 0 1-3.8 3.89l-.21.16a3.93 3.93 0 0 1-2 1 14.37 14.37 0 0 1-3.66 0 7.76 7.76 0 0 1-1-.14c-1.41-.39-1.72-1.21-1.8-1.66a.86.86 0 0 0-.13-.4l-.07-.05a9 9 0 0 0-3.33-.72c-1.93-.21-6.57 1.66-8.2 2.39a16.67 16.67 0 0 1-1.95.77 2.7 2.7 0 0 1-3.07-1.31l-2-2.63H42.3l-2 2.63a2.94 2.94 0 0 1-2.3 1.44zm-14.33-2.5h-.06zm.07 0zm37.76-3a4.24 4.24 0 0 1-.85-.09c-1-.22-4.5-1.5-4.9-1.64a3.56 3.56 0 0 1-1.87-1.47c-.41-.62-5.47-6.33-8.57-9.78a.83.83 0 0 0-.5-.15H41.3a.81.81 0 0 0-.53.18c-3.07 3.42-8.14 9.13-8.55 9.76a3.6 3.6 0 0 1-1.92 1.48c-.34.12-3.85 1.4-4.84 1.62a4.92 4.92 0 0 1-2.5-.19h-.13a44.13 44.13 0 0 1-5.11-3l-.1-.11a1.54 1.54 0 0 1-.56-1.11c0-.12 0-.31-.09-.6a4.58 4.58 0 0 0-1.21-2.61 19.64 19.64 0 0 0-2.44-1.7 2.33 2.33 0 0 1-1.7-1.91c-.59-1.69-.18-7.81 0-8.44a2.79 2.79 0 0 1 1.71-1.85 4.8 4.8 0 0 0 2.9-2.89l.14-.31a8.27 8.27 0 0 1 2.18-2.16c1.09-.87 2-1.1 4.07-1.34 1.38-.16 3.14-.25 5.38-.36l3.91-.21c3.31-.27 4.41.25 4.77.59s2.49 2.16 3.19 3a1.87 1.87 0 0 0 .76.55h4.84a2 2 0 0 0 .76-.55c.7-.8 2.95-2.76 3.2-3s1.45-.83 4.77-.57l3.9.21c2.23.11 4 .2 5.37.36 2.1.24 3 .47 4.08 1.34a8.36 8.36 0 0 1 2.17 2.16 3.33 3.33 0 0 1 .14.31 4.79 4.79 0 0 0 2.85 2.87 2.8 2.8 0 0 1 1.76 1.87c.19.62.6 6.65 0 8.48a2.33 2.33 0 0 1-1.69 1.87 19.51 19.51 0 0 0-2.43 1.68 4.52 4.52 0 0 0-1.21 2.55c-.07.37-.09.56-.11.68a1.53 1.53 0 0 1-.55 1.11l-.11.11a43 43 0 0 1-5.1 3h-.14a4.87 4.87 0 0 1-1.62.23zm-37.8-2.17a3 3 0 0 0 1.33.1c.65-.15 3.13-1 4.64-1.57a1.67 1.67 0 0 0 .84-.62c.47-.79 6.85-7.92 8.8-10.08a2.71 2.71 0 0 1 1.95-.82h3.59a2.77 2.77 0 0 1 2 .82c1.94 2.16 8.32 9.29 8.8 10.08a1.6 1.6 0 0 0 .78.6c1.56.57 4 1.44 4.7 1.59a3 3 0 0 0 1.33-.1c1.94-1 4.22-2.34 4.55-2.64l.11-.11c0-.14 0-.36.11-.68a6.3 6.3 0 0 1 1.64-3.52 16.22 16.22 0 0 1 3-2.13 1.58 1.58 0 0 1 .59-.23 1.58 1.58 0 0 0 .19-.45v-.08c.41-1.17.15-6.55 0-7.32-.06-.21-.14-.38-.56-.56a6.67 6.67 0 0 1-4-3.94 1.26 1.26 0 0 1-.08-.18 7.92 7.92 0 0 0-1.64-1.52c-.66-.52-1.12-.69-3.07-.92-1.31-.15-3-.23-5.24-.34l-3.94-.22a8.44 8.44 0 0 0-3.38.15c-.74.64-2.45 2.16-2.95 2.73a3.65 3.65 0 0 1-2 1.22h-5.44a3.66 3.66 0 0 1-2-1.22c-.5-.58-2.23-2.12-2.94-2.73a8.41 8.41 0 0 0-3.37-.15l-4 .22c-2.2.11-3.94.19-5.25.34-1.95.23-2.4.4-3.06.92a7.59 7.59 0 0 0-1.64 1.52l-.08.18a6.74 6.74 0 0 1-4 4 .76.76 0 0 0-.51.57c-.16.74-.42 6.12 0 7.29.11.45.24.53.24.53a1.54 1.54 0 0 1 .55.23 16.58 16.58 0 0 1 2.93 2.1 6.52 6.52 0 0 1 1.68 3.63c0 .25.08.46.1.6l.12.12c.36.25 2.63 1.54 4.58 2.59zm11.66-24.75zm15.42 0zm25.75 21.17l-.53-.27a1 1 0 0 1-.37-1.34c.05-.28.13-1 .18-1.53v-.24l.71-2a28.71 28.71 0 0 0 .2-3.2 19.91 19.91 0 0 0-1-6.44v-.12a5.42 5.42 0 0 0-.94-2 1 1 0 1 1 1.51-1.31 7.22 7.22 0 0 1 1.36 2.78A22 22 0 0 1 78.77 33a27.29 27.29 0 0 1-.24 3.57v.19l-.7 2c-.18 2-.28 2.29-.79 2.56zm-67.07-.82a1.08 1.08 0 0 1-.5-.12c-.51-.29-.59-.77-.64-1.9l-.74-2.18A27.29 27.29 0 0 1 7.34 33a21.55 21.55 0 0 1 1.14-7.09 7.22 7.22 0 0 1 1.36-2.78 1 1 0 0 1 1.51 1.3 5.63 5.63 0 0 0-.94 2v.12a19.89 19.89 0 0 0-1 6.44 25.61 25.61 0 0 0 .21 3.2l.76 2.32c0 .3 0 .64.06.82a1 1 0 0 1-.44 1.34 1 1 0 0 1-.54.12zm5.61-19.74a1 1 0 0 1-.67-1.74c.14-.13 3.63-3.27 6.79-3.88S34.85 14.32 35 14.32a1.56 1.56 0 0 0 .92-.3c.19-.11.42-.24.73-.39 1.1-.55 4.49-.47 6.45-.37 2-.1 5.34-.18 6.44.37.31.15.55.28.74.39a1.54 1.54 0 0 0 .92.3c.1 0 10.45.37 13.79 1.12 3.14.6 6.62 3.74 6.77 3.87a1 1 0 0 1 .07 1.42 1 1 0 0 1-1.41.06s-3.22-2.89-5.83-3.4c-2.78-.61-11.32-1-13.46-1.07a3.38 3.38 0 0 1-1.82-.55l-.65-.35a22.72 22.72 0 0 0-5.51-.16H43a22.65 22.65 0 0 0-5.51.16l-.65.35a3.44 3.44 0 0 1-1.83.55c-2.13.07-10.67.46-13.42 1.07-2.2.42-5 2.6-5.86 3.4a1 1 0 0 1-.66.26z" id="Shape"/><path fill="#6FC1FE" class="cls-1" d="M51.27 53.34a22.56 22.56 0 0 1-3-.11 39.44 39.44 0 0 0-10.58 0c-2.37.43-15.57-.58-17.07-.69a1 1 0 0 1 .16-2c5.78.45 15 1 16.56.73a40.79 40.79 0 0 1 11.31 0c1.9.37 14.08-.21 15.34-.74a1 1 0 0 1 1.35.35 1 1 0 0 1-.34 1.38c-1.16.74-9.19 1.08-13.73 1.08z"/></svg>