<?xml version="1.0" encoding="UTF-8"?><svg xmlns="http://www.w3.org/2000/svg" xmlns:xlink="http://www.w3.org/1999/xlink" contentScriptType="text/ecmascript" width="708.75pt" zoomAndPan="magnify" contentStyleType="text/css" viewBox="0 0 708.75 567.000005" height="567.000005pt" preserveAspectRatio="xMidYMid meet" version="1.2"><defs/><g opacity="0.300000012" xml:id="surface1" id="surface1"><g clip-rule="nonzero"><path style=" stroke:none;fill-rule:nonzero;fill:rgb(43.528748%,75.689697%,99.609375%);fill-opacity:1;" d="M 267.003906 94.765625 C 267.003906 90.550781 263.574219 87.125 259.363281 87.125 L 257.300781 87.125 L 257.300781 85.0625 C 257.300781 82.988281 255.613281 81.300781 253.539062 81.300781 L 203.46875 81.300781 C 202.421875 80.109375 200.890625 79.359375 199.1875 79.359375 L 191.421875 79.359375 C 189.71875 79.359375 188.1875 80.109375 187.140625 81.300781 L 181.71875 81.300781 C 179.644531 81.300781 177.957031 82.988281 177.957031 85.0625 L 177.957031 89.363281 C 175.703125 90.125 174.074219 92.257812 174.074219 94.765625 L 174.074219 129.828125 L 170.070312 129.828125 C 167.996094 129.828125 166.308594 131.515625 166.308594 133.589844 L 166.308594 141.351562 C 166.308594 143.425781 167.996094 145.113281 170.070312 145.113281 L 174.074219 145.113281 L 174.074219 151.058594 C 174.074219 154.203125 176.632812 156.761719 179.777344 156.761719 L 210.957031 156.761719 L 210.957031 158.945312 L 210.832031 158.945312 C 209.421875 158.945312 208.1875 159.730469 207.542969 160.886719 L 179.371094 160.886719 C 178.917969 159.777344 177.949219 158.925781 176.710938 158.648438 L 163.121094 155.628906 C 162.003906 155.382812 160.847656 155.652344 159.953125 156.367188 C 159.058594 157.085938 158.546875 158.15625 158.546875 159.300781 L 158.546875 177.753906 C 158.546875 178.902344 159.058594 179.972656 159.953125 180.6875 C 160.628906 181.230469 161.453125 181.515625 162.300781 181.515625 C 162.574219 181.515625 162.847656 181.488281 163.121094 181.425781 L 176.710938 178.40625 C 177.949219 178.132812 178.917969 177.28125 179.371094 176.171875 L 207.542969 176.171875 C 208.1875 177.328125 209.417969 178.113281 210.832031 178.113281 L 210.953125 178.113281 L 210.953125 180.296875 L 203.070312 180.296875 C 199.925781 180.296875 197.367188 182.855469 197.367188 186 L 197.367188 189.882812 C 197.367188 190.886719 198.183594 191.699219 199.1875 191.699219 L 239.949219 191.699219 C 240.957031 191.699219 241.769531 190.886719 241.769531 189.882812 L 241.769531 186 C 241.769531 182.855469 239.210938 180.296875 236.066406 180.296875 L 228.183594 180.296875 L 228.183594 178.113281 L 228.304688 178.113281 C 230.378906 178.113281 232.066406 176.425781 232.066406 174.351562 L 232.066406 174.230469 L 236.066406 174.230469 C 239.210938 174.230469 241.769531 171.671875 241.769531 168.527344 C 241.769531 165.382812 239.210938 162.828125 236.066406 162.828125 L 232.066406 162.828125 L 232.066406 162.707031 C 232.066406 160.632812 230.378906 158.945312 228.304688 158.945312 L 228.183594 158.945312 L 228.183594 156.761719 L 259.363281 156.761719 C 262.503906 156.761719 265.0625 154.203125 265.0625 151.058594 L 265.0625 134.789062 C 266.269531 133.4375 267.003906 131.65625 267.003906 129.707031 Z M 263.363281 94.765625 L 263.363281 129.707031 C 263.363281 131.914062 261.570312 133.710938 259.363281 133.710938 L 220.539062 133.710938 C 218.332031 133.710938 216.535156 131.914062 216.535156 129.707031 L 216.535156 94.765625 C 216.535156 92.558594 218.332031 90.761719 220.539062 90.761719 L 259.363281 90.761719 C 261.570312 90.761719 263.363281 92.558594 263.363281 94.765625 Z M 253.539062 84.941406 C 253.605469 84.941406 253.660156 84.992188 253.660156 85.0625 L 253.660156 87.125 L 220.539062 87.125 C 218.589844 87.125 216.808594 87.859375 215.457031 89.0625 L 204.890625 89.0625 L 204.890625 85.0625 C 204.890625 85.019531 204.886719 84.980469 204.886719 84.941406 Z M 191.421875 83 L 199.1875 83 C 200.324219 83 201.25 83.921875 201.25 85.0625 L 201.25 89.0625 L 189.359375 89.0625 L 189.359375 85.0625 C 189.359375 83.921875 190.285156 83 191.421875 83 Z M 181.71875 84.941406 L 185.722656 84.941406 C 185.722656 84.980469 185.722656 85.019531 185.722656 85.0625 L 185.722656 89.0625 L 181.597656 89.0625 L 181.597656 85.0625 C 181.597656 84.992188 181.648438 84.941406 181.71875 84.941406 Z M 170.070312 141.472656 C 170.003906 141.472656 169.949219 141.421875 169.949219 141.351562 L 169.949219 133.589844 C 169.949219 133.523438 170.003906 133.46875 170.070312 133.46875 L 174.074219 133.46875 L 174.074219 141.472656 Z M 179.65625 164.523438 L 207.074219 164.523438 L 207.074219 172.53125 L 179.65625 172.53125 Z M 176.015625 174.734375 C 176.015625 174.792969 175.976562 174.84375 175.921875 174.855469 L 162.332031 177.875 C 162.316406 177.878906 162.277344 177.886719 162.230469 177.851562 C 162.183594 177.8125 162.183594 177.773438 162.183594 177.753906 L 162.183594 159.300781 C 162.183594 159.285156 162.183594 159.242188 162.230469 159.207031 C 162.257812 159.183594 162.285156 159.179688 162.304688 159.179688 C 162.316406 159.179688 162.324219 159.183594 162.332031 159.183594 L 175.921875 162.203125 C 175.976562 162.214844 176.015625 162.265625 176.015625 162.320312 Z M 238.128906 186 L 238.128906 188.0625 L 201.007812 188.0625 L 201.007812 186 C 201.007812 184.859375 201.933594 183.9375 203.070312 183.9375 L 236.066406 183.9375 C 237.207031 183.9375 238.128906 184.859375 238.128906 186 Z M 224.542969 180.296875 L 214.59375 180.296875 L 214.59375 178.113281 L 224.542969 178.113281 Z M 236.066406 166.464844 C 237.207031 166.464844 238.128906 167.390625 238.128906 168.527344 C 238.128906 169.664062 237.207031 170.589844 236.066406 170.589844 L 232.066406 170.589844 L 232.066406 166.464844 Z M 228.425781 162.707031 L 228.425781 174.351562 C 228.425781 174.417969 228.371094 174.472656 228.304688 174.472656 L 210.832031 174.472656 C 210.765625 174.472656 210.710938 174.417969 210.710938 174.351562 L 210.710938 162.707031 C 210.710938 162.636719 210.765625 162.582031 210.832031 162.582031 L 228.304688 162.582031 C 228.371094 162.582031 228.425781 162.636719 228.425781 162.707031 Z M 224.542969 158.945312 L 214.59375 158.945312 L 214.59375 156.761719 L 224.542969 156.761719 Z M 259.363281 153.121094 L 179.777344 153.121094 C 178.640625 153.121094 177.714844 152.195312 177.714844 151.058594 L 177.714844 94.765625 C 177.714844 93.628906 178.640625 92.703125 179.777344 92.703125 L 213.179688 92.703125 C 212.996094 93.359375 212.894531 94.050781 212.894531 94.765625 L 212.894531 129.707031 C 212.894531 133.921875 216.324219 137.347656 220.539062 137.347656 L 259.363281 137.347656 C 260.074219 137.347656 260.765625 137.25 261.425781 137.0625 L 261.425781 151.058594 C 261.425781 152.195312 260.5 153.121094 259.363281 153.121094 Z M 259.363281 153.121094 "/></g><path style=" stroke:none;fill-rule:nonzero;fill:rgb(43.528748%,75.689697%,99.609375%);fill-opacity:1;" d="M 222.480469 94.886719 C 221.476562 94.886719 220.660156 95.703125 220.660156 96.707031 L 220.660156 127.765625 C 220.660156 128.769531 221.476562 129.585938 222.480469 129.585938 L 257.421875 129.585938 C 258.425781 129.585938 259.238281 128.769531 259.238281 127.765625 L 259.238281 96.707031 C 259.238281 95.703125 258.425781 94.886719 257.421875 94.886719 Z M 253.660156 112.238281 C 253.660156 119.796875 247.507812 125.945312 239.949219 125.945312 C 232.390625 125.945312 226.242188 119.796875 226.242188 112.238281 C 226.242188 104.675781 232.390625 98.527344 239.949219 98.527344 C 247.507812 98.527344 253.660156 104.675781 253.660156 112.238281 Z M 229.335938 98.527344 C 227.210938 100.175781 225.476562 102.304688 224.300781 104.753906 L 224.300781 98.527344 Z M 224.300781 125.945312 L 224.300781 119.71875 C 225.476562 122.167969 227.210938 124.296875 229.335938 125.945312 Z M 250.5625 125.945312 C 252.6875 124.296875 254.425781 122.167969 255.601562 119.71875 L 255.601562 125.945312 Z M 255.601562 98.527344 L 255.601562 104.753906 C 254.425781 102.304688 252.6875 100.175781 250.5625 98.527344 Z M 255.601562 98.527344 "/><path style=" stroke:none;fill-rule:nonzero;fill:rgb(43.528748%,75.689697%,99.609375%);fill-opacity:1;" d="M 239.949219 121.820312 C 245.234375 121.820312 249.535156 117.519531 249.535156 112.238281 C 249.535156 106.953125 245.234375 102.652344 239.949219 102.652344 C 234.664062 102.652344 230.367188 106.953125 230.367188 112.238281 C 230.367188 117.519531 234.664062 121.820312 239.949219 121.820312 Z M 239.949219 106.292969 C 243.226562 106.292969 245.894531 108.957031 245.894531 112.238281 C 245.894531 115.515625 243.226562 118.179688 239.949219 118.179688 C 236.671875 118.179688 234.003906 115.515625 234.003906 112.238281 C 234.003906 108.957031 236.671875 106.292969 239.949219 106.292969 Z M 239.949219 106.292969 "/><path style=" stroke:none;fill-rule:nonzero;fill:rgb(43.528748%,75.689697%,99.609375%);fill-opacity:1;" d="M 239.949219 115.753906 C 241.890625 115.753906 243.46875 114.175781 243.46875 112.238281 C 243.46875 110.296875 241.890625 108.71875 239.949219 108.71875 C 238.011719 108.71875 236.433594 110.296875 236.433594 112.238281 C 236.433594 114.175781 238.011719 115.753906 239.949219 115.753906 Z M 239.949219 115.753906 "/><path style=" stroke:none;fill-rule:nonzero;fill:rgb(43.528748%,75.689697%,99.609375%);fill-opacity:1;" d="M 201.128906 100.710938 L 189.480469 100.710938 C 187.40625 100.710938 185.722656 102.398438 185.722656 104.472656 L 185.722656 120 C 185.722656 122.074219 187.40625 123.761719 189.480469 123.761719 L 201.128906 123.761719 C 203.203125 123.761719 204.890625 122.074219 204.890625 120 L 204.890625 104.472656 C 204.890625 102.398438 203.203125 100.710938 201.128906 100.710938 Z M 201.25 120 C 201.25 120.066406 201.195312 120.121094 201.128906 120.121094 L 189.480469 120.121094 C 189.414062 120.121094 189.359375 120.066406 189.359375 120 L 189.359375 104.472656 C 189.359375 104.40625 189.414062 104.351562 189.480469 104.351562 L 201.128906 104.351562 C 201.195312 104.351562 201.25 104.40625 201.25 104.472656 Z M 201.25 120 "/><path style=" stroke:none;fill-rule:nonzero;fill:rgb(43.528748%,75.689697%,99.609375%);fill-opacity:1;" d="M 195.304688 127.886719 C 190.019531 127.886719 185.722656 132.1875 185.722656 137.472656 C 185.722656 142.753906 190.019531 147.054688 195.304688 147.054688 C 200.589844 147.054688 204.890625 142.753906 204.890625 137.472656 C 204.890625 132.1875 200.589844 127.886719 195.304688 127.886719 Z M 195.304688 143.414062 C 192.027344 143.414062 189.359375 140.75 189.359375 137.472656 C 189.359375 134.191406 192.027344 131.527344 195.304688 131.527344 C 198.582031 131.527344 201.25 134.191406 201.25 137.472656 C 201.25 140.75 198.582031 143.414062 195.304688 143.414062 Z M 195.304688 143.414062 "/><g clip-rule="nonzero"><path style=" stroke:none;fill-rule:nonzero;fill:rgb(43.528748%,75.689697%,99.609375%);fill-opacity:1;" d="M 308.199219 328.746094 L 308.199219 309.195312 L 312.425781 306.375 L 319.214844 306.375 L 319.214844 302.703125 L 311.3125 302.703125 L 304.527344 307.230469 L 304.527344 328.746094 C 302.390625 329.507812 300.851562 331.527344 300.851562 333.917969 C 300.851562 336.953125 303.324219 339.425781 306.363281 339.425781 C 309.398438 339.425781 311.871094 336.953125 311.871094 333.917969 C 311.871094 331.527344 310.328125 329.507812 308.199219 328.746094 Z M 306.363281 335.753906 C 305.347656 335.753906 304.527344 334.929688 304.527344 333.917969 C 304.527344 332.902344 305.347656 332.082031 306.363281 332.082031 C 307.375 332.082031 308.199219 332.902344 308.199219 333.917969 C 308.199219 334.929688 307.375 335.753906 306.363281 335.753906 Z M 306.363281 335.753906 "/></g><g clip-rule="nonzero"><path style=" stroke:none;fill-rule:nonzero;fill:rgb(43.528748%,75.689697%,99.609375%);fill-opacity:1;" d="M 309.695312 299.03125 L 319.214844 299.03125 L 319.214844 295.359375 L 309.695312 295.359375 C 308.9375 293.226562 306.917969 291.6875 304.527344 291.6875 C 301.488281 291.6875 299.015625 294.15625 299.015625 297.195312 C 299.015625 300.230469 301.488281 302.703125 304.527344 302.703125 C 306.917969 302.703125 308.9375 301.164062 309.695312 299.03125 Z M 302.6875 297.195312 C 302.6875 296.179688 303.511719 295.359375 304.527344 295.359375 C 305.539062 295.359375 306.363281 296.179688 306.363281 297.195312 C 306.363281 298.207031 305.539062 299.03125 304.527344 299.03125 C 303.511719 299.03125 302.6875 298.207031 302.6875 297.195312 Z M 302.6875 297.195312 "/></g><g clip-rule="nonzero"><path style=" stroke:none;fill-rule:nonzero;fill:rgb(43.528748%,75.689697%,99.609375%);fill-opacity:1;" d="M 304.527344 288.015625 C 306.917969 288.015625 308.9375 286.472656 309.695312 284.34375 L 319.214844 284.34375 L 319.214844 280.667969 L 309.695312 280.667969 C 308.9375 278.535156 306.917969 276.996094 304.527344 276.996094 C 301.488281 276.996094 299.015625 279.46875 299.015625 282.503906 C 299.015625 285.542969 301.488281 288.015625 304.527344 288.015625 Z M 304.527344 280.667969 C 305.539062 280.667969 306.363281 281.492188 306.363281 282.503906 C 306.363281 283.519531 305.539062 284.34375 304.527344 284.34375 C 303.511719 284.34375 302.6875 283.519531 302.6875 282.503906 C 302.6875 281.492188 303.511719 280.667969 304.527344 280.667969 Z M 304.527344 280.667969 "/></g><path style=" stroke:none;fill-rule:nonzero;fill:rgb(43.528748%,75.689697%,99.609375%);fill-opacity:1;" d="M 311.871094 288.015625 L 319.214844 288.015625 L 319.214844 291.6875 L 311.871094 291.6875 Z M 311.871094 288.015625 "/><path style=" stroke:none;fill-rule:nonzero;fill:rgb(43.528748%,75.689697%,99.609375%);fill-opacity:1;" d="M 311.871094 273.324219 L 319.214844 273.324219 L 319.214844 276.996094 L 311.871094 276.996094 Z M 311.871094 273.324219 "/><g clip-rule="nonzero"><path style=" stroke:none;fill-rule:nonzero;fill:rgb(43.528748%,75.689697%,99.609375%);fill-opacity:1;" d="M 299.015625 265.980469 L 319.214844 265.980469 L 319.214844 269.652344 L 299.015625 269.652344 Z M 299.015625 265.980469 "/></g><path style=" stroke:none;fill-rule:nonzero;fill:rgb(43.528748%,75.689697%,99.609375%);fill-opacity:1;" d="M 312.945312 262.308594 L 319.214844 262.308594 L 319.214844 258.636719 L 314.464844 258.636719 L 310.035156 254.203125 L 310.035156 250.953125 C 312.164062 250.195312 313.707031 248.175781 313.707031 245.785156 C 313.707031 242.746094 311.234375 240.273438 308.199219 240.273438 C 305.160156 240.273438 302.6875 242.746094 302.6875 245.785156 C 302.6875 248.175781 304.226562 250.195312 306.363281 250.953125 L 306.363281 255.722656 Z M 308.199219 243.945312 C 309.210938 243.945312 310.035156 244.769531 310.035156 245.785156 C 310.035156 246.796875 309.210938 247.621094 308.199219 247.621094 C 307.183594 247.621094 306.363281 246.796875 306.363281 245.785156 C 306.363281 244.769531 307.183594 243.945312 308.199219 243.945312 Z M 308.199219 243.945312 "/><g clip-rule="nonzero"><path style=" stroke:none;fill-rule:nonzero;fill:rgb(43.528748%,75.689697%,99.609375%);fill-opacity:1;" d="M 332.066406 241.035156 L 332.066406 245.785156 L 335.738281 245.785156 L 335.738281 239.515625 L 329.15625 232.929688 L 299.015625 232.929688 L 299.015625 236.601562 L 327.636719 236.601562 Z M 332.066406 241.035156 "/></g><g clip-rule="nonzero"><path style=" stroke:none;fill-rule:nonzero;fill:rgb(43.528748%,75.689697%,99.609375%);fill-opacity:1;" d="M 339.410156 233.691406 L 339.410156 245.785156 L 343.082031 245.785156 L 343.082031 232.171875 L 336.5 225.585938 L 299.015625 225.585938 L 299.015625 229.257812 L 334.980469 229.257812 Z M 339.410156 233.691406 "/></g><path style=" stroke:none;fill-rule:nonzero;fill:rgb(43.528748%,75.689697%,99.609375%);fill-opacity:1;" d="M 346.757812 238.4375 L 350.429688 238.4375 L 350.429688 245.785156 L 346.757812 245.785156 Z M 346.757812 238.4375 "/><g clip-rule="nonzero"><path style=" stroke:none;fill-rule:nonzero;fill:rgb(43.528748%,75.689697%,99.609375%);fill-opacity:1;" d="M 368.789062 225.585938 L 372.460938 225.585938 L 372.460938 245.785156 L 368.789062 245.785156 Z M 368.789062 225.585938 "/></g><g clip-rule="nonzero"><path style=" stroke:none;fill-rule:nonzero;fill:rgb(43.528748%,75.689697%,99.609375%);fill-opacity:1;" d="M 354.101562 236.265625 L 354.101562 245.785156 L 357.773438 245.785156 L 357.773438 239.199219 L 361.445312 242.871094 L 361.445312 245.785156 L 365.117188 245.785156 L 365.117188 241.351562 L 359.238281 235.472656 C 360.570312 234.46875 361.445312 232.886719 361.445312 231.09375 C 361.445312 228.058594 358.972656 225.585938 355.9375 225.585938 C 352.898438 225.585938 350.429688 228.058594 350.429688 231.09375 C 350.429688 233.484375 351.96875 235.503906 354.101562 236.265625 Z M 355.9375 229.257812 C 356.949219 229.257812 357.773438 230.082031 357.773438 231.09375 C 357.773438 232.109375 356.949219 232.929688 355.9375 232.929688 C 354.921875 232.929688 354.101562 232.109375 354.101562 231.09375 C 354.101562 230.082031 354.921875 229.257812 355.9375 229.257812 Z M 355.9375 229.257812 "/></g><g clip-rule="nonzero"><path style=" stroke:none;fill-rule:nonzero;fill:rgb(43.528748%,75.689697%,99.609375%);fill-opacity:1;" d="M 379.804688 237.363281 L 384.238281 232.929688 L 402.175781 232.929688 C 402.730469 234.484375 403.957031 235.710938 405.511719 236.265625 L 405.511719 261.546875 L 401.078125 265.980469 L 392.660156 265.980469 L 392.660156 269.652344 L 402.601562 269.652344 L 409.183594 263.070312 L 409.183594 236.265625 C 411.316406 235.503906 412.855469 233.484375 412.855469 231.09375 C 412.855469 228.058594 410.386719 225.585938 407.347656 225.585938 C 404.957031 225.585938 402.9375 227.125 402.175781 229.257812 L 382.71875 229.257812 L 376.132812 235.84375 L 376.132812 245.785156 L 379.804688 245.785156 Z M 407.347656 229.257812 C 408.363281 229.257812 409.183594 230.082031 409.183594 231.09375 C 409.183594 232.109375 408.363281 232.929688 407.347656 232.929688 C 406.335938 232.929688 405.511719 232.109375 405.511719 231.09375 C 405.511719 230.082031 406.335938 229.257812 407.347656 229.257812 Z M 407.347656 229.257812 "/></g><path style=" stroke:none;fill-rule:nonzero;fill:rgb(43.528748%,75.689697%,99.609375%);fill-opacity:1;" d="M 394.054688 247.9375 L 398.167969 252.050781 L 398.167969 254.203125 L 393.734375 258.636719 L 392.660156 258.636719 L 392.660156 262.308594 L 395.253906 262.308594 L 401.839844 255.722656 L 401.839844 250.53125 L 395.253906 243.945312 L 394.15625 243.945312 C 393.398438 241.816406 391.378906 240.273438 388.988281 240.273438 C 385.949219 240.273438 383.480469 242.746094 383.480469 245.785156 C 383.480469 248.820312 385.949219 251.292969 388.988281 251.292969 C 391.261719 251.292969 393.214844 249.90625 394.054688 247.9375 Z M 388.988281 247.621094 C 387.972656 247.621094 387.152344 246.796875 387.152344 245.785156 C 387.152344 244.769531 387.972656 243.945312 388.988281 243.945312 C 390 243.945312 390.824219 244.769531 390.824219 245.785156 C 390.824219 246.796875 390 247.621094 388.988281 247.621094 Z M 388.988281 247.621094 "/><g clip-rule="nonzero"><path style=" stroke:none;fill-rule:nonzero;fill:rgb(43.528748%,75.689697%,99.609375%);fill-opacity:1;" d="M 392.660156 273.324219 L 412.855469 273.324219 L 412.855469 276.996094 L 392.660156 276.996094 Z M 392.660156 273.324219 "/></g><g clip-rule="nonzero"><path style=" stroke:none;fill-rule:nonzero;fill:rgb(43.528748%,75.689697%,99.609375%);fill-opacity:1;" d="M 409.183594 328.746094 L 409.183594 287.253906 L 402.601562 280.667969 L 392.660156 280.667969 L 392.660156 284.34375 L 401.078125 284.34375 L 405.511719 288.773438 L 405.511719 298.269531 L 402.601562 295.359375 L 392.660156 295.359375 L 392.660156 299.03125 L 401.078125 299.03125 L 405.511719 303.464844 L 405.511719 328.746094 C 403.378906 329.507812 401.839844 331.527344 401.839844 333.917969 C 401.839844 336.953125 404.3125 339.425781 407.347656 339.425781 C 410.386719 339.425781 412.855469 336.953125 412.855469 333.917969 C 412.855469 331.527344 411.316406 329.507812 409.183594 328.746094 Z M 407.347656 335.753906 C 406.335938 335.753906 405.511719 334.929688 405.511719 333.917969 C 405.511719 332.902344 406.335938 332.082031 407.347656 332.082031 C 408.363281 332.082031 409.183594 332.902344 409.183594 333.917969 C 409.183594 334.929688 408.363281 335.753906 407.347656 335.753906 Z M 407.347656 335.753906 "/></g><path style=" stroke:none;fill-rule:nonzero;fill:rgb(43.528748%,75.689697%,99.609375%);fill-opacity:1;" d="M 392.660156 288.015625 L 400.003906 288.015625 L 400.003906 291.6875 L 392.660156 291.6875 Z M 392.660156 288.015625 "/><g clip-rule="nonzero"><path style=" stroke:none;fill-rule:nonzero;fill:rgb(43.528748%,75.689697%,99.609375%);fill-opacity:1;" d="M 401.839844 309.289062 L 395.253906 302.703125 L 392.660156 302.703125 L 392.660156 306.375 L 393.734375 306.375 L 398.167969 310.808594 L 398.167969 321.0625 L 379.804688 321.0625 L 379.804688 319.226562 L 376.132812 319.226562 L 376.132812 324.738281 L 398.167969 324.738281 L 398.167969 327.648438 L 393.734375 332.082031 L 390.484375 332.082031 C 389.726562 329.949219 387.707031 328.410156 385.316406 328.410156 C 382.277344 328.410156 379.804688 330.878906 379.804688 333.917969 C 379.804688 336.953125 382.277344 339.425781 385.316406 339.425781 C 387.707031 339.425781 389.726562 337.886719 390.484375 335.753906 L 395.253906 335.753906 L 401.839844 329.167969 Z M 385.316406 335.753906 C 384.300781 335.753906 383.480469 334.929688 383.480469 333.917969 C 383.480469 332.902344 384.300781 332.082031 385.316406 332.082031 C 386.328125 332.082031 387.152344 332.902344 387.152344 333.917969 C 387.152344 334.929688 386.328125 335.753906 385.316406 335.753906 Z M 385.316406 335.753906 "/></g><path style=" stroke:none;fill-rule:nonzero;fill:rgb(43.528748%,75.689697%,99.609375%);fill-opacity:1;" d="M 335.738281 319.226562 L 332.066406 319.226562 L 332.066406 321.0625 L 322.546875 321.0625 C 321.789062 318.933594 319.769531 317.390625 317.378906 317.390625 C 314.339844 317.390625 311.871094 319.863281 311.871094 322.898438 C 311.871094 325.9375 314.339844 328.410156 317.378906 328.410156 C 319.769531 328.410156 321.789062 326.867188 322.546875 324.738281 L 335.738281 324.738281 Z M 317.378906 324.738281 C 316.363281 324.738281 315.542969 323.914062 315.542969 322.898438 C 315.542969 321.886719 316.363281 321.0625 317.378906 321.0625 C 318.390625 321.0625 319.214844 321.886719 319.214844 322.898438 C 319.214844 323.914062 318.390625 324.738281 317.378906 324.738281 Z M 317.378906 324.738281 "/><g clip-rule="nonzero"><path style=" stroke:none;fill-rule:nonzero;fill:rgb(43.528748%,75.689697%,99.609375%);fill-opacity:1;" d="M 368.789062 319.226562 L 372.460938 319.226562 L 372.460938 339.425781 L 368.789062 339.425781 Z M 368.789062 319.226562 "/></g><g clip-rule="nonzero"><path style=" stroke:none;fill-rule:nonzero;fill:rgb(43.528748%,75.689697%,99.609375%);fill-opacity:1;" d="M 361.445312 319.226562 L 365.117188 319.226562 L 365.117188 339.425781 L 361.445312 339.425781 Z M 361.445312 319.226562 "/></g><g clip-rule="nonzero"><path style=" stroke:none;fill-rule:nonzero;fill:rgb(43.528748%,75.689697%,99.609375%);fill-opacity:1;" d="M 354.101562 322.140625 L 350.429688 325.8125 L 350.429688 319.226562 L 346.757812 319.226562 L 346.757812 328.746094 C 344.621094 329.507812 343.082031 331.527344 343.082031 333.917969 C 343.082031 336.953125 345.554688 339.425781 348.59375 339.425781 C 351.628906 339.425781 354.101562 336.953125 354.101562 333.917969 C 354.101562 332.125 353.226562 330.542969 351.894531 329.539062 L 357.773438 323.660156 L 357.773438 319.226562 L 354.101562 319.226562 Z M 348.59375 335.753906 C 347.578125 335.753906 346.757812 334.929688 346.757812 333.917969 C 346.757812 332.902344 347.578125 332.082031 348.59375 332.082031 C 349.605469 332.082031 350.429688 332.902344 350.429688 333.917969 C 350.429688 334.929688 349.605469 335.753906 348.59375 335.753906 Z M 348.59375 335.753906 "/></g><g clip-rule="nonzero"><path style=" stroke:none;fill-rule:nonzero;fill:rgb(43.528748%,75.689697%,99.609375%);fill-opacity:1;" d="M 343.082031 319.226562 L 339.410156 319.226562 L 339.410156 323.976562 L 333.902344 329.484375 L 333.902344 339.425781 L 337.574219 339.425781 L 337.574219 331.003906 L 343.082031 325.496094 Z M 343.082031 319.226562 "/></g><path style=" stroke:none;fill-rule:nonzero;fill:rgb(43.528748%,75.689697%,99.609375%);fill-opacity:1;" d="M 376.132812 315.554688 L 379.804688 315.554688 L 379.804688 311.882812 L 385.316406 311.882812 L 385.316406 306.375 L 388.988281 306.375 L 388.988281 302.703125 L 385.316406 302.703125 L 385.316406 299.03125 L 388.988281 299.03125 L 388.988281 295.359375 L 385.316406 295.359375 L 385.316406 291.6875 L 388.988281 291.6875 L 388.988281 288.015625 L 385.316406 288.015625 L 385.316406 284.34375 L 388.988281 284.34375 L 388.988281 280.667969 L 385.316406 280.667969 L 385.316406 276.996094 L 388.988281 276.996094 L 388.988281 273.324219 L 385.316406 273.324219 L 385.316406 269.652344 L 388.988281 269.652344 L 388.988281 265.980469 L 385.316406 265.980469 L 385.316406 262.308594 L 388.988281 262.308594 L 388.988281 258.636719 L 385.316406 258.636719 L 385.316406 253.128906 L 379.804688 253.128906 L 379.804688 249.457031 L 376.132812 249.457031 L 376.132812 253.128906 L 372.460938 253.128906 L 372.460938 249.457031 L 368.789062 249.457031 L 368.789062 253.128906 L 365.117188 253.128906 L 365.117188 249.457031 L 361.445312 249.457031 L 361.445312 253.128906 L 357.773438 253.128906 L 357.773438 249.457031 L 354.101562 249.457031 L 354.101562 253.128906 L 350.429688 253.128906 L 350.429688 249.457031 L 346.757812 249.457031 L 346.757812 253.128906 L 343.082031 253.128906 L 343.082031 249.457031 L 339.410156 249.457031 L 339.410156 253.128906 L 335.738281 253.128906 L 335.738281 249.457031 L 332.066406 249.457031 L 332.066406 253.128906 L 331.308594 253.128906 L 326.558594 257.875 L 326.558594 258.636719 L 322.886719 258.636719 L 322.886719 262.308594 L 326.558594 262.308594 L 326.558594 265.980469 L 322.886719 265.980469 L 322.886719 269.652344 L 326.558594 269.652344 L 326.558594 273.324219 L 322.886719 273.324219 L 322.886719 276.996094 L 326.558594 276.996094 L 326.558594 280.667969 L 322.886719 280.667969 L 322.886719 284.34375 L 326.558594 284.34375 L 326.558594 288.015625 L 322.886719 288.015625 L 322.886719 291.6875 L 326.558594 291.6875 L 326.558594 295.359375 L 322.886719 295.359375 L 322.886719 299.03125 L 326.558594 299.03125 L 326.558594 302.703125 L 322.886719 302.703125 L 322.886719 306.375 L 326.558594 306.375 L 326.558594 311.882812 L 332.066406 311.882812 L 332.066406 315.554688 L 335.738281 315.554688 L 335.738281 311.882812 L 339.410156 311.882812 L 339.410156 315.554688 L 343.082031 315.554688 L 343.082031 311.882812 L 346.757812 311.882812 L 346.757812 315.554688 L 350.429688 315.554688 L 350.429688 311.882812 L 354.101562 311.882812 L 354.101562 315.554688 L 357.773438 315.554688 L 357.773438 311.882812 L 361.445312 311.882812 L 361.445312 315.554688 L 365.117188 315.554688 L 365.117188 311.882812 L 368.789062 311.882812 L 368.789062 315.554688 L 372.460938 315.554688 L 372.460938 311.882812 L 376.132812 311.882812 Z M 330.230469 308.210938 L 330.230469 259.394531 L 332.828125 256.800781 L 381.640625 256.800781 L 381.640625 308.210938 Z M 330.230469 308.210938 "/><path style=" stroke:none;fill-rule:nonzero;fill:rgb(43.528748%,75.689697%,99.609375%);fill-opacity:1;" d="M 372.207031 274.023438 L 375.410156 270.820312 L 367.621094 263.03125 L 364.417969 266.234375 C 363.464844 265.734375 362.46875 265.324219 361.445312 265 L 361.445312 260.472656 L 350.429688 260.472656 L 350.429688 265 C 349.402344 265.324219 348.410156 265.734375 347.457031 266.234375 L 344.25 263.03125 L 336.460938 270.820312 L 339.667969 274.023438 C 339.167969 274.980469 338.753906 275.972656 338.429688 276.996094 L 333.902344 276.996094 L 333.902344 288.015625 L 338.429688 288.015625 C 338.753906 289.039062 339.164062 290.035156 339.667969 290.988281 L 336.460938 294.191406 L 344.25 301.980469 L 347.457031 298.777344 C 348.410156 299.273438 349.402344 299.6875 350.429688 300.011719 L 350.429688 304.539062 L 361.445312 304.539062 L 361.445312 300.011719 C 362.472656 299.6875 363.464844 299.277344 364.417969 298.777344 L 367.621094 301.980469 L 375.410156 294.191406 L 372.207031 290.988281 C 372.707031 290.035156 373.121094 289.039062 373.441406 288.015625 L 377.96875 288.015625 L 377.96875 276.996094 L 373.441406 276.996094 C 373.121094 275.972656 372.707031 274.976562 372.207031 274.023438 Z M 374.296875 284.34375 L 370.574219 284.34375 L 370.25 285.769531 C 369.882812 287.378906 369.246094 288.910156 368.363281 290.3125 L 367.582031 291.554688 L 370.21875 294.191406 L 367.625 296.789062 L 364.984375 294.152344 L 363.742188 294.933594 C 362.339844 295.816406 360.8125 296.449219 359.203125 296.816406 L 357.773438 297.144531 L 357.773438 300.867188 L 354.101562 300.867188 L 354.101562 297.144531 L 352.671875 296.816406 C 351.0625 296.449219 349.535156 295.816406 348.128906 294.933594 L 346.886719 294.152344 L 344.25 296.789062 L 341.652344 294.191406 L 344.292969 291.554688 L 343.511719 290.3125 C 342.625 288.910156 341.992188 287.378906 341.625 285.769531 L 341.300781 284.34375 L 337.574219 284.34375 L 337.574219 280.667969 L 341.300781 280.667969 L 341.625 279.242188 C 341.992188 277.628906 342.625 276.101562 343.511719 274.699219 L 344.292969 273.457031 L 341.652344 270.820312 L 344.25 268.222656 L 346.886719 270.859375 L 348.128906 270.078125 C 349.535156 269.195312 351.0625 268.558594 352.671875 268.191406 L 354.101562 267.867188 L 354.101562 264.144531 L 357.773438 264.144531 L 357.773438 267.867188 L 359.203125 268.191406 C 360.8125 268.558594 362.339844 269.195312 363.742188 270.078125 L 364.984375 270.859375 L 367.625 268.222656 L 370.21875 270.820312 L 367.582031 273.460938 L 368.363281 274.699219 C 369.246094 276.105469 369.882812 277.632812 370.25 279.242188 L 370.574219 280.667969 L 374.296875 280.667969 Z M 374.296875 284.34375 "/><path style=" stroke:none;fill-rule:nonzero;fill:rgb(43.528748%,75.689697%,99.609375%);fill-opacity:1;" d="M 355.9375 273.324219 C 350.875 273.324219 346.757812 277.445312 346.757812 282.503906 C 346.757812 287.566406 350.875 291.6875 355.9375 291.6875 C 361 291.6875 365.117188 287.566406 365.117188 282.503906 C 365.117188 277.445312 361 273.324219 355.9375 273.324219 Z M 355.9375 288.015625 C 352.898438 288.015625 350.429688 285.542969 350.429688 282.503906 C 350.429688 279.46875 352.898438 276.996094 355.9375 276.996094 C 358.972656 276.996094 361.445312 279.46875 361.445312 282.503906 C 361.445312 285.542969 358.972656 288.015625 355.9375 288.015625 Z M 355.9375 288.015625 "/><g clip-rule="nonzero"><path style=" stroke:none;fill-rule:nonzero;fill:rgb(43.528748%,75.689697%,99.609375%);fill-opacity:1;" d="M 229.082031 272.269531 L 224.765625 263.636719 L 218.210938 263.636719 L 218.210938 260.011719 L 221.835938 260.011719 L 221.835938 252.921875 L 241.765625 254.578125 L 261.699219 254.578125 C 265.695312 254.578125 268.945312 251.328125 268.945312 247.328125 C 268.945312 243.332031 265.695312 240.082031 261.699219 240.082031 L 241.617188 240.089844 L 221.835938 241.738281 L 221.835938 239.476562 C 221.835938 235.96875 220.675781 232.496094 218.570312 229.691406 L 217.121094 227.761719 C 216.101562 226.398438 214.476562 225.585938 212.773438 225.585938 C 211.074219 225.585938 209.449219 226.398438 208.429688 227.761719 L 206.976562 229.691406 C 204.875 232.496094 203.714844 235.96875 203.714844 239.476562 L 203.714844 241.738281 L 183.785156 240.082031 L 163.851562 240.082031 C 159.855469 240.082031 156.605469 243.332031 156.605469 247.328125 C 156.605469 251.328125 159.855469 254.578125 163.851562 254.578125 L 183.933594 254.570312 L 203.714844 252.921875 L 203.714844 260.011719 L 207.339844 260.011719 L 207.339844 263.636719 L 200.785156 263.636719 L 196.46875 272.269531 L 196.46875 314.371094 L 189.21875 314.371094 L 189.21875 327.054688 L 200.089844 327.054688 L 200.089844 334.304688 L 210.964844 334.304688 L 210.964844 327.054688 L 214.585938 327.054688 L 214.585938 334.304688 L 225.457031 334.304688 L 225.457031 327.054688 L 227.960938 327.054688 L 229.890625 330.917969 C 232.058594 335.242188 236.402344 337.925781 241.238281 337.925781 L 268.945312 337.925781 L 268.945312 334.304688 L 241.238281 334.304688 C 237.785156 334.304688 234.679688 332.382812 233.132812 329.296875 L 230.203125 323.433594 L 192.84375 323.433594 L 192.84375 317.996094 L 268.945312 317.996094 L 268.945312 314.371094 L 229.082031 314.371094 Z M 221.835938 245.371094 L 241.765625 243.707031 L 261.699219 243.707031 C 263.695312 243.707031 265.320312 245.332031 265.320312 247.328125 C 265.320312 249.328125 263.695312 250.953125 261.699219 250.953125 L 241.917969 250.960938 L 221.835938 249.285156 Z M 203.714844 249.289062 L 183.785156 250.953125 L 163.851562 250.953125 C 161.851562 250.953125 160.226562 249.328125 160.226562 247.328125 C 160.226562 245.332031 161.851562 243.707031 163.851562 243.707031 L 183.632812 243.699219 L 203.714844 245.371094 Z M 218.210938 327.054688 L 221.835938 327.054688 L 221.835938 330.679688 L 218.210938 330.679688 Z M 203.714844 327.054688 L 207.339844 327.054688 L 207.339844 330.679688 L 203.714844 330.679688 Z M 209.875 231.867188 L 211.324219 229.933594 C 212.003906 229.027344 213.546875 229.027344 214.222656 229.933594 L 215.675781 231.867188 C 217.066406 233.722656 217.886719 235.964844 218.113281 238.269531 L 207.4375 238.269531 C 207.664062 235.964844 208.480469 233.722656 209.875 231.867188 Z M 207.339844 241.894531 L 218.210938 241.894531 L 218.210938 256.390625 L 214.585938 256.390625 L 214.585938 252.765625 L 210.964844 252.765625 L 210.964844 256.390625 L 207.339844 256.390625 Z M 214.585938 260.011719 L 214.585938 263.636719 L 210.964844 263.636719 L 210.964844 260.011719 Z M 203.023438 267.261719 L 222.527344 267.261719 L 224.339844 270.886719 L 201.210938 270.886719 Z M 225.457031 314.371094 L 200.089844 314.371094 L 200.089844 310.75 L 225.457031 310.75 Z M 225.457031 307.125 L 200.089844 307.125 L 200.089844 299.875 L 203.714844 299.875 L 203.714844 303.5 L 207.339844 303.5 L 207.339844 299.875 L 210.964844 299.875 L 210.964844 303.5 L 214.585938 303.5 L 214.585938 299.875 L 218.210938 299.875 L 218.210938 303.5 L 221.835938 303.5 L 221.835938 299.875 L 225.457031 299.875 Z M 225.457031 296.253906 L 200.089844 296.253906 L 200.089844 274.507812 L 225.457031 274.507812 Z M 225.457031 296.253906 "/></g><path style=" stroke:none;fill-rule:nonzero;fill:rgb(43.528748%,75.689697%,99.609375%);fill-opacity:1;" d="M 210.964844 245.515625 L 214.585938 245.515625 L 214.585938 249.140625 L 210.964844 249.140625 Z M 210.964844 245.515625 "/><g clip-rule="nonzero"><path style=" stroke:none;fill-rule:nonzero;fill:rgb(43.528748%,75.689697%,99.609375%);fill-opacity:1;" d="M 236.332031 327.054688 L 239.953125 327.054688 L 239.953125 330.679688 L 243.578125 330.679688 L 243.578125 327.054688 L 247.203125 327.054688 L 247.203125 330.679688 L 250.824219 330.679688 L 250.824219 327.054688 L 254.449219 327.054688 L 254.449219 330.679688 L 258.074219 330.679688 L 258.074219 327.054688 L 261.699219 327.054688 L 261.699219 330.679688 L 265.320312 330.679688 L 265.320312 327.054688 L 268.945312 327.054688 L 268.945312 323.433594 L 236.332031 323.433594 Z M 236.332031 327.054688 "/></g><path style=" stroke:none;fill-rule:nonzero;fill:rgb(43.528748%,75.689697%,99.609375%);fill-opacity:1;" d="M 494.777344 120.84375 L 506.011719 120.84375 C 507.046875 120.84375 507.882812 120.007812 507.882812 118.972656 L 507.882812 102.121094 C 507.882812 101.085938 507.046875 100.25 506.011719 100.25 L 494.777344 100.25 C 493.742188 100.25 492.90625 101.085938 492.90625 102.121094 L 492.90625 118.972656 C 492.90625 120.007812 493.742188 120.84375 494.777344 120.84375 Z M 496.648438 103.992188 L 504.140625 103.992188 L 504.140625 117.101562 L 496.648438 117.101562 Z M 496.648438 103.992188 "/><path style=" stroke:none;fill-rule:nonzero;fill:rgb(43.528748%,75.689697%,99.609375%);fill-opacity:1;" d="M 494.777344 148.929688 L 498.523438 148.929688 L 498.523438 152.675781 L 494.777344 152.675781 Z M 494.777344 148.929688 "/><path style=" stroke:none;fill-rule:nonzero;fill:rgb(43.528748%,75.689697%,99.609375%);fill-opacity:1;" d="M 498.523438 145.183594 L 502.265625 145.183594 L 502.265625 148.929688 L 498.523438 148.929688 Z M 498.523438 145.183594 "/><path style=" stroke:none;fill-rule:nonzero;fill:rgb(43.528748%,75.689697%,99.609375%);fill-opacity:1;" d="M 502.265625 148.929688 L 506.011719 148.929688 L 506.011719 152.675781 L 502.265625 152.675781 Z M 502.265625 148.929688 "/><path style=" stroke:none;fill-rule:nonzero;fill:rgb(43.528748%,75.689697%,99.609375%);fill-opacity:1;" d="M 498.523438 152.675781 L 502.265625 152.675781 L 502.265625 156.417969 L 498.523438 156.417969 Z M 498.523438 152.675781 "/><path style=" stroke:none;fill-rule:nonzero;fill:rgb(43.528748%,75.689697%,99.609375%);fill-opacity:1;" d="M 494.777344 156.417969 L 498.523438 156.417969 L 498.523438 160.164062 L 494.777344 160.164062 Z M 494.777344 156.417969 "/><path style=" stroke:none;fill-rule:nonzero;fill:rgb(43.528748%,75.689697%,99.609375%);fill-opacity:1;" d="M 502.265625 156.417969 L 506.011719 156.417969 L 506.011719 160.164062 L 502.265625 160.164062 Z M 502.265625 156.417969 "/><path style=" stroke:none;fill-rule:nonzero;fill:rgb(43.528748%,75.689697%,99.609375%);fill-opacity:1;" d="M 498.523438 160.164062 L 502.265625 160.164062 L 502.265625 163.910156 L 498.523438 163.910156 Z M 498.523438 160.164062 "/><g clip-rule="nonzero"><path style=" stroke:none;fill-rule:nonzero;fill:rgb(43.528748%,75.689697%,99.609375%);fill-opacity:1;" d="M 530.351562 188.226562 L 513.5 188.226562 L 513.5 141.441406 C 514.535156 141.441406 515.375 140.601562 515.375 139.566406 L 515.375 128.332031 C 517.441406 128.332031 519.117188 126.65625 519.117188 124.589844 L 519.117188 120.84375 C 520.152344 120.84375 520.992188 120.003906 520.992188 118.972656 L 520.992188 103.992188 C 520.992188 103.132812 520.40625 102.386719 519.574219 102.175781 L 519.117188 102.0625 L 519.117188 96.503906 C 519.117188 94.433594 517.441406 92.757812 515.375 92.757812 L 502.265625 92.757812 L 502.265625 81.523438 C 502.265625 80.492188 501.429688 79.652344 500.394531 79.652344 C 499.359375 79.652344 498.523438 80.492188 498.523438 81.523438 L 498.523438 92.757812 L 485.417969 92.757812 C 483.347656 92.757812 481.671875 94.433594 481.671875 96.503906 L 481.671875 102.0625 L 481.21875 102.175781 C 480.382812 102.386719 479.800781 103.132812 479.800781 103.992188 L 479.800781 118.972656 C 479.800781 120.007812 480.636719 120.84375 481.671875 120.84375 L 481.671875 124.589844 C 481.671875 126.65625 483.347656 128.332031 485.414062 128.332031 L 485.414062 139.566406 C 485.414062 140.601562 486.253906 141.441406 487.289062 141.441406 L 487.289062 188.226562 L 470.4375 188.226562 C 469.402344 188.226562 468.566406 189.0625 468.566406 190.097656 C 468.566406 191.132812 469.402344 191.96875 470.4375 191.96875 L 488.875 191.96875 C 488.96875 191.984375 489.0625 191.992188 489.160156 191.992188 L 511.628906 191.992188 C 511.726562 191.992188 511.820312 191.984375 511.914062 191.96875 L 530.351562 191.96875 C 531.386719 191.96875 532.226562 191.132812 532.226562 190.097656 C 532.226562 189.0625 531.386719 188.226562 530.351562 188.226562 Z M 516.792969 105.339844 L 517.246094 105.453125 L 517.246094 117.097656 L 513.5 117.097656 L 513.5 104.519531 Z M 483.542969 105.453125 L 483.996094 105.339844 L 487.289062 104.519531 L 487.289062 117.097656 L 483.542969 117.097656 Z M 489.160156 120.84375 C 490.195312 120.84375 491.03125 120.003906 491.03125 118.972656 L 491.03125 102.121094 C 491.03125 100.902344 489.886719 100.007812 488.707031 100.304688 L 485.417969 101.125 L 485.417969 96.503906 L 515.375 96.503906 L 515.375 101.125 L 512.082031 100.304688 C 510.902344 100.007812 509.757812 100.902344 509.757812 102.121094 L 509.757812 118.972656 C 509.757812 120.003906 510.59375 120.84375 511.628906 120.84375 L 515.375 120.84375 L 515.375 124.589844 L 485.417969 124.589844 L 485.417969 120.84375 Z M 511.628906 137.695312 L 489.160156 137.695312 L 489.160156 128.332031 L 511.628906 128.332031 Z M 491.035156 163.910156 L 494.777344 163.910156 L 494.777344 160.164062 L 491.035156 160.164062 L 491.035156 156.417969 L 494.777344 156.417969 L 494.777344 152.675781 L 491.035156 152.675781 L 491.035156 148.929688 L 494.777344 148.929688 L 494.777344 145.183594 L 491.035156 145.183594 L 491.035156 141.441406 L 509.757812 141.441406 L 509.757812 145.183594 L 506.011719 145.183594 L 506.011719 148.929688 L 509.757812 148.929688 L 509.757812 152.675781 L 506.011719 152.675781 L 506.011719 156.417969 L 509.757812 156.417969 L 509.757812 160.164062 L 506.011719 160.164062 L 506.011719 163.910156 L 509.757812 163.910156 L 509.757812 188.226562 L 491.035156 188.226562 Z M 491.035156 163.910156 "/></g><g clip-rule="nonzero"><path style=" stroke:none;fill-rule:nonzero;fill:rgb(43.528748%,75.689697%,99.609375%);fill-opacity:1;" d="M 483.886719 272.269531 L 488.203125 263.636719 L 494.757812 263.636719 L 494.757812 260.011719 L 491.132812 260.011719 L 491.132812 252.921875 L 471.203125 254.578125 L 451.269531 254.578125 C 447.273438 254.578125 444.023438 251.328125 444.023438 247.328125 C 444.023438 243.332031 447.273438 240.082031 451.269531 240.082031 L 471.351562 240.089844 L 491.132812 241.738281 L 491.132812 239.476562 C 491.132812 235.96875 492.292969 232.496094 494.398438 229.691406 L 495.847656 227.761719 C 496.867188 226.398438 498.492188 225.585938 500.195312 225.585938 C 501.894531 225.585938 503.519531 226.398438 504.539062 227.761719 L 505.988281 229.691406 C 508.09375 232.496094 509.253906 235.96875 509.253906 239.476562 L 509.253906 241.738281 L 529.183594 240.082031 L 549.117188 240.082031 C 553.113281 240.082031 556.363281 243.332031 556.363281 247.328125 C 556.363281 251.328125 553.113281 254.578125 549.117188 254.578125 L 529.035156 254.570312 L 509.253906 252.921875 L 509.253906 260.011719 L 505.628906 260.011719 L 505.628906 263.636719 L 512.183594 263.636719 L 516.5 272.269531 L 516.5 314.371094 L 523.75 314.371094 L 523.75 327.054688 L 512.878906 327.054688 L 512.878906 334.304688 L 502.003906 334.304688 L 502.003906 327.054688 L 498.382812 327.054688 L 498.382812 334.304688 L 487.511719 334.304688 L 487.511719 327.054688 L 485.007812 327.054688 L 483.074219 330.917969 C 480.910156 335.242188 476.566406 337.925781 471.730469 337.925781 L 444.023438 337.925781 L 444.023438 334.304688 L 471.730469 334.304688 C 475.183594 334.304688 478.289062 332.382812 479.835938 329.296875 L 482.765625 323.433594 L 520.125 323.433594 L 520.125 317.996094 L 444.023438 317.996094 L 444.023438 314.371094 L 483.886719 314.371094 Z M 491.132812 245.371094 L 471.203125 243.707031 L 451.269531 243.707031 C 449.273438 243.707031 447.648438 245.332031 447.648438 247.328125 C 447.648438 249.328125 449.273438 250.953125 451.269531 250.953125 L 471.050781 250.960938 L 491.132812 249.285156 Z M 509.253906 249.289062 L 529.183594 250.953125 L 549.117188 250.953125 C 551.117188 250.953125 552.742188 249.328125 552.742188 247.328125 C 552.742188 245.332031 551.117188 243.707031 549.117188 243.707031 L 529.335938 243.699219 L 509.253906 245.371094 Z M 494.757812 327.054688 L 491.132812 327.054688 L 491.132812 330.679688 L 494.757812 330.679688 Z M 509.253906 327.054688 L 505.628906 327.054688 L 505.628906 330.679688 L 509.253906 330.679688 Z M 503.09375 231.867188 L 501.644531 229.933594 C 500.964844 229.027344 499.421875 229.027344 498.746094 229.933594 L 497.292969 231.867188 C 495.902344 233.722656 495.082031 235.964844 494.855469 238.269531 L 505.53125 238.269531 C 505.304688 235.964844 504.484375 233.722656 503.09375 231.867188 Z M 505.628906 241.894531 L 494.757812 241.894531 L 494.757812 256.390625 L 498.382812 256.390625 L 498.382812 252.765625 L 502.003906 252.765625 L 502.003906 256.390625 L 505.628906 256.390625 Z M 498.382812 260.011719 L 498.382812 263.636719 L 502.003906 263.636719 L 502.003906 260.011719 Z M 509.945312 267.261719 L 490.441406 267.261719 L 488.628906 270.886719 L 511.757812 270.886719 Z M 487.511719 314.371094 L 512.878906 314.371094 L 512.878906 310.75 L 487.511719 310.75 Z M 487.511719 307.125 L 512.878906 307.125 L 512.878906 299.875 L 509.253906 299.875 L 509.253906 303.5 L 505.628906 303.5 L 505.628906 299.875 L 502.003906 299.875 L 502.003906 303.5 L 498.382812 303.5 L 498.382812 299.875 L 494.757812 299.875 L 494.757812 303.5 L 491.132812 303.5 L 491.132812 299.875 L 487.511719 299.875 Z M 487.511719 296.253906 L 512.878906 296.253906 L 512.878906 274.507812 L 487.511719 274.507812 Z M 487.511719 296.253906 "/></g><path style=" stroke:none;fill-rule:nonzero;fill:rgb(43.528748%,75.689697%,99.609375%);fill-opacity:1;" d="M 502.003906 245.515625 L 498.382812 245.515625 L 498.382812 249.140625 L 502.003906 249.140625 Z M 502.003906 245.515625 "/><g clip-rule="nonzero"><path style=" stroke:none;fill-rule:nonzero;fill:rgb(43.528748%,75.689697%,99.609375%);fill-opacity:1;" d="M 476.636719 327.054688 L 473.015625 327.054688 L 473.015625 330.679688 L 469.390625 330.679688 L 469.390625 327.054688 L 465.765625 327.054688 L 465.765625 330.679688 L 462.144531 330.679688 L 462.144531 327.054688 L 458.519531 327.054688 L 458.519531 330.679688 L 454.894531 330.679688 L 454.894531 327.054688 L 451.269531 327.054688 L 451.269531 330.679688 L 447.648438 330.679688 L 447.648438 327.054688 L 444.023438 327.054688 L 444.023438 323.433594 L 476.636719 323.433594 Z M 476.636719 327.054688 "/></g><g clip-rule="nonzero"><path style=" stroke:none;fill-rule:nonzero;fill:rgb(43.528748%,75.689697%,99.609375%);fill-opacity:1;" d="M 384.957031 112.484375 C 381.753906 112.484375 378.695312 113.066406 375.835938 114.082031 L 375.835938 86.949219 L 355.773438 86.949219 L 355.773438 79.652344 L 319.292969 79.652344 L 319.292969 86.949219 L 299.226562 86.949219 L 299.226562 192.742188 L 375.835938 192.742188 L 375.835938 165.609375 C 378.695312 166.625 381.753906 167.207031 384.957031 167.207031 C 400.042969 167.207031 412.316406 154.933594 412.316406 139.84375 C 412.316406 124.757812 400.042969 112.484375 384.957031 112.484375 Z M 322.9375 83.300781 L 352.125 83.300781 L 352.125 86.949219 L 322.9375 86.949219 Z M 372.1875 189.09375 L 368.539062 189.09375 L 368.539062 185.445312 L 364.890625 185.445312 L 364.890625 189.09375 L 361.242188 189.09375 L 361.242188 185.445312 L 357.597656 185.445312 L 357.597656 189.09375 L 353.949219 189.09375 L 353.949219 185.445312 L 350.300781 185.445312 L 350.300781 189.09375 L 346.652344 189.09375 L 346.652344 185.445312 L 343.003906 185.445312 L 343.003906 189.09375 L 339.355469 189.09375 L 339.355469 185.445312 L 335.707031 185.445312 L 335.707031 189.09375 L 332.058594 189.09375 L 332.058594 185.445312 L 328.410156 185.445312 L 328.410156 189.09375 L 324.761719 189.09375 L 324.761719 185.445312 L 321.113281 185.445312 L 321.113281 189.09375 L 317.46875 189.09375 L 317.46875 185.445312 L 313.820312 185.445312 L 313.820312 189.09375 L 310.171875 189.09375 L 310.171875 185.445312 L 306.523438 185.445312 L 306.523438 189.09375 L 302.875 189.09375 L 302.875 90.597656 L 306.523438 90.597656 L 306.523438 94.246094 L 310.171875 94.246094 L 310.171875 90.597656 L 313.820312 90.597656 L 313.820312 94.246094 L 317.46875 94.246094 L 317.46875 90.597656 L 321.113281 90.597656 L 321.113281 94.246094 L 324.761719 94.246094 L 324.761719 90.597656 L 328.410156 90.597656 L 328.410156 94.246094 L 332.058594 94.246094 L 332.058594 90.597656 L 335.707031 90.597656 L 335.707031 94.246094 L 339.355469 94.246094 L 339.355469 90.597656 L 343.003906 90.597656 L 343.003906 94.246094 L 346.652344 94.246094 L 346.652344 90.597656 L 350.300781 90.597656 L 350.300781 94.246094 L 353.949219 94.246094 L 353.949219 90.597656 L 357.597656 90.597656 L 357.597656 94.246094 L 361.242188 94.246094 L 361.242188 90.597656 L 364.890625 90.597656 L 364.890625 94.246094 L 368.539062 94.246094 L 368.539062 90.597656 L 372.1875 90.597656 L 372.1875 115.664062 C 370.082031 116.78125 368.152344 118.175781 366.417969 119.78125 L 341.902344 119.78125 L 342.75 116.132812 L 368.539062 116.132812 L 368.539062 97.894531 L 306.523438 97.894531 L 306.523438 116.132812 L 332.757812 116.132812 L 330.933594 119.78125 L 306.523438 119.78125 L 306.523438 138.023438 L 321.808594 138.023438 L 320.625 140.390625 L 322.328125 141.667969 L 306.523438 141.667969 L 306.523438 159.910156 L 333.160156 159.910156 L 332.3125 163.558594 L 306.523438 163.558594 L 306.523438 181.796875 L 368.539062 181.796875 L 368.539062 163.558594 L 342.308594 163.558594 L 344.128906 159.910156 L 366.417969 159.910156 C 368.152344 161.515625 370.082031 162.910156 372.1875 164.027344 Z M 336.835938 174.503906 L 340.484375 167.207031 L 364.890625 167.207031 L 364.890625 178.152344 L 310.171875 178.152344 L 310.171875 167.207031 L 331.460938 167.207031 L 329.761719 174.503906 Z M 334.582031 170.855469 L 334.359375 170.855469 L 339.257812 149.835938 L 325.253906 139.304688 L 340.484375 108.835938 L 340.707031 108.835938 L 335.804688 129.855469 L 349.8125 140.386719 Z M 334.011719 156.261719 L 310.171875 156.261719 L 310.171875 145.316406 L 327.183594 145.316406 L 335.160156 151.320312 Z M 323.632812 134.375 L 310.171875 134.375 L 310.171875 123.429688 L 329.109375 123.429688 Z M 338.226562 105.1875 L 334.582031 112.484375 L 310.171875 112.484375 L 310.171875 101.539062 L 364.890625 101.539062 L 364.890625 112.484375 L 343.601562 112.484375 L 345.300781 105.1875 Z M 351.429688 145.316406 L 358.148438 145.316406 C 358.972656 149.367188 360.71875 153.074219 363.121094 156.261719 L 345.957031 156.261719 Z M 357.6875 141.667969 L 353.253906 141.667969 L 354.4375 139.300781 L 352.734375 138.023438 L 357.6875 138.023438 C 357.648438 138.628906 357.597656 139.230469 357.597656 139.84375 C 357.597656 140.460938 357.648438 141.0625 357.6875 141.667969 Z M 358.148438 134.375 L 347.882812 134.375 L 339.902344 128.371094 L 341.050781 123.429688 L 363.117188 123.429688 C 360.71875 126.617188 358.972656 130.324219 358.148438 134.375 Z M 384.957031 163.558594 C 371.882812 163.558594 361.242188 152.921875 361.242188 139.84375 C 361.242188 126.769531 371.882812 116.132812 384.957031 116.132812 C 398.03125 116.132812 408.667969 126.769531 408.667969 139.84375 C 408.667969 152.921875 398.03125 163.558594 384.957031 163.558594 Z M 384.957031 163.558594 "/></g><path style=" stroke:none;fill-rule:nonzero;fill:rgb(43.528748%,75.689697%,99.609375%);fill-opacity:1;" d="M 386.78125 134.710938 L 386.78125 119.78125 L 383.132812 119.78125 L 383.132812 134.710938 C 381.015625 135.464844 379.484375 137.472656 379.484375 139.84375 C 379.484375 142.863281 381.941406 145.316406 384.957031 145.316406 C 387.332031 145.316406 389.335938 143.789062 390.09375 141.667969 L 401.371094 141.667969 L 401.371094 138.023438 L 390.09375 138.023438 C 389.542969 136.476562 388.324219 135.261719 386.78125 134.710938 Z M 384.957031 141.667969 C 383.949219 141.667969 383.132812 140.851562 383.132812 139.84375 C 383.132812 138.839844 383.949219 138.023438 384.957031 138.023438 C 385.964844 138.023438 386.78125 138.839844 386.78125 139.84375 C 386.78125 140.851562 385.964844 141.667969 384.957031 141.667969 Z M 384.957031 141.667969 "/><g clip-rule="nonzero"><path style=" stroke:none;fill-rule:nonzero;fill:rgb(43.528748%,75.689697%,99.609375%);fill-opacity:1;" d="M 389.523438 489.800781 L 363.648438 489.800781 L 363.648438 482.410156 L 359.953125 482.410156 L 359.953125 475.015625 L 356.253906 475.015625 L 356.253906 452.835938 L 359.953125 452.835938 L 359.953125 441.75 L 348.863281 441.75 L 348.863281 452.835938 L 352.558594 452.835938 L 352.558594 475.015625 L 348.863281 475.015625 L 348.863281 482.410156 L 345.167969 482.410156 L 345.167969 489.800781 L 319.292969 489.800781 C 316.234375 489.800781 313.746094 492.289062 313.746094 495.347656 L 313.746094 543.398438 C 313.746094 550.53125 319.550781 556.335938 326.683594 556.335938 L 382.128906 556.335938 C 389.261719 556.335938 395.066406 550.53125 395.066406 543.398438 L 395.066406 495.347656 C 395.066406 492.289062 392.582031 489.800781 389.523438 489.800781 Z M 352.558594 445.445312 L 356.253906 445.445312 L 356.253906 449.140625 L 352.558594 449.140625 Z M 352.558594 478.710938 L 356.253906 478.710938 L 356.253906 482.410156 L 352.558594 482.410156 Z M 348.863281 486.105469 L 359.953125 486.105469 L 359.953125 489.800781 L 348.863281 489.800781 Z M 391.371094 530.460938 L 387.675781 530.460938 L 387.675781 534.15625 L 391.371094 534.15625 L 391.371094 543.398438 C 391.371094 548.496094 387.226562 552.640625 382.128906 552.640625 L 326.683594 552.640625 C 321.589844 552.640625 317.445312 548.496094 317.445312 543.398438 L 317.445312 534.15625 L 321.140625 534.15625 L 321.140625 530.460938 L 317.445312 530.460938 L 317.445312 495.347656 C 317.445312 494.324219 318.273438 493.496094 319.292969 493.496094 L 352.558594 493.496094 L 352.558594 497.195312 L 356.253906 497.195312 L 356.253906 493.496094 L 389.523438 493.496094 C 390.542969 493.496094 391.371094 494.324219 391.371094 495.347656 Z M 391.371094 530.460938 "/></g><path style=" stroke:none;fill-rule:nonzero;fill:rgb(43.528748%,75.689697%,99.609375%);fill-opacity:1;" d="M 337.773438 497.195312 C 328.601562 497.195312 321.140625 504.65625 321.140625 513.828125 C 321.140625 523 328.601562 530.460938 337.773438 530.460938 C 346.945312 530.460938 354.40625 523 354.40625 513.828125 C 354.40625 504.65625 346.945312 497.195312 337.773438 497.195312 Z M 337.773438 526.765625 C 330.640625 526.765625 324.835938 520.960938 324.835938 513.828125 C 324.835938 506.695312 330.640625 500.890625 337.773438 500.890625 C 344.90625 500.890625 350.710938 506.695312 350.710938 513.828125 C 350.710938 520.960938 344.90625 526.765625 337.773438 526.765625 Z M 337.773438 526.765625 "/><path style=" stroke:none;fill-rule:nonzero;fill:rgb(43.528748%,75.689697%,99.609375%);fill-opacity:1;" d="M 339.621094 508.285156 L 328.53125 508.285156 L 328.53125 519.371094 L 339.621094 519.371094 L 339.621094 515.675781 L 347.015625 515.675781 L 347.015625 511.980469 L 339.621094 511.980469 Z M 335.925781 515.675781 L 332.230469 515.675781 L 332.230469 511.980469 L 335.925781 511.980469 Z M 335.925781 515.675781 "/><path style=" stroke:none;fill-rule:nonzero;fill:rgb(43.528748%,75.689697%,99.609375%);fill-opacity:1;" d="M 371.042969 497.195312 C 361.867188 497.195312 354.40625 504.65625 354.40625 513.828125 C 354.40625 523 361.867188 530.460938 371.042969 530.460938 C 380.214844 530.460938 387.675781 523 387.675781 513.828125 C 387.675781 504.65625 380.214844 497.195312 371.042969 497.195312 Z M 371.042969 526.765625 C 363.910156 526.765625 358.105469 520.960938 358.105469 513.828125 C 358.105469 506.695312 363.910156 500.890625 371.042969 500.890625 C 378.171875 500.890625 383.980469 506.695312 383.980469 513.828125 C 383.980469 520.960938 378.171875 526.765625 371.042969 526.765625 Z M 371.042969 526.765625 "/><path style=" stroke:none;fill-rule:nonzero;fill:rgb(43.528748%,75.689697%,99.609375%);fill-opacity:1;" d="M 365.496094 515.675781 L 369.191406 515.675781 L 369.191406 523.070312 L 372.890625 523.070312 L 372.890625 515.675781 L 376.585938 515.675781 L 376.585938 504.585938 L 365.496094 504.585938 Z M 369.191406 508.285156 L 372.890625 508.285156 L 372.890625 511.980469 L 369.191406 511.980469 Z M 369.191406 508.285156 "/><path style=" stroke:none;fill-rule:nonzero;fill:rgb(43.528748%,75.689697%,99.609375%);fill-opacity:1;" d="M 335.925781 534.15625 C 331.847656 534.15625 328.53125 537.472656 328.53125 541.550781 C 328.53125 545.628906 331.847656 548.945312 335.925781 548.945312 C 340.003906 548.945312 343.320312 545.628906 343.320312 541.550781 C 343.320312 537.472656 340.003906 534.15625 335.925781 534.15625 Z M 335.925781 545.246094 C 333.886719 545.246094 332.230469 543.589844 332.230469 541.550781 C 332.230469 539.511719 333.886719 537.855469 335.925781 537.855469 C 337.960938 537.855469 339.621094 539.511719 339.621094 541.550781 C 339.621094 543.589844 337.960938 545.246094 335.925781 545.246094 Z M 335.925781 545.246094 "/><path style=" stroke:none;fill-rule:nonzero;fill:rgb(43.528748%,75.689697%,99.609375%);fill-opacity:1;" d="M 354.40625 534.15625 C 350.332031 534.15625 347.015625 537.472656 347.015625 541.550781 C 347.015625 545.628906 350.332031 548.945312 354.40625 548.945312 C 358.484375 548.945312 361.800781 545.628906 361.800781 541.550781 C 361.800781 537.472656 358.484375 534.15625 354.40625 534.15625 Z M 354.40625 545.246094 C 352.367188 545.246094 350.710938 543.589844 350.710938 541.550781 C 350.710938 539.511719 352.367188 537.855469 354.40625 537.855469 C 356.445312 537.855469 358.105469 539.511719 358.105469 541.550781 C 358.105469 543.589844 356.445312 545.246094 354.40625 545.246094 Z M 354.40625 545.246094 "/><path style=" stroke:none;fill-rule:nonzero;fill:rgb(43.528748%,75.689697%,99.609375%);fill-opacity:1;" d="M 372.890625 534.15625 C 368.8125 534.15625 365.496094 537.472656 365.496094 541.550781 C 365.496094 545.628906 368.8125 548.945312 372.890625 548.945312 C 376.964844 548.945312 380.28125 545.628906 380.28125 541.550781 C 380.28125 537.472656 376.964844 534.15625 372.890625 534.15625 Z M 372.890625 545.246094 C 370.851562 545.246094 369.191406 543.589844 369.191406 541.550781 C 369.191406 539.511719 370.851562 537.855469 372.890625 537.855469 C 374.925781 537.855469 376.585938 539.511719 376.585938 541.550781 C 376.585938 543.589844 374.925781 545.246094 372.890625 545.246094 Z M 372.890625 545.246094 "/><path style=" stroke:none;fill-rule:nonzero;fill:rgb(43.528748%,75.689697%,99.609375%);fill-opacity:1;" d="M 389.523438 471.320312 C 393.601562 471.320312 396.917969 468.003906 396.917969 463.925781 C 396.917969 459.847656 393.601562 456.535156 389.523438 456.535156 C 385.445312 456.535156 382.128906 459.847656 382.128906 463.925781 C 382.128906 468.003906 385.445312 471.320312 389.523438 471.320312 Z M 389.523438 460.230469 C 391.558594 460.230469 393.21875 461.890625 393.21875 463.925781 C 393.21875 465.964844 391.558594 467.621094 389.523438 467.621094 C 387.484375 467.621094 385.828125 465.964844 385.828125 463.925781 C 385.828125 461.890625 387.484375 460.230469 389.523438 460.230469 Z M 389.523438 460.230469 "/><g clip-rule="nonzero"><path style=" stroke:none;fill-rule:nonzero;fill:rgb(43.528748%,75.689697%,99.609375%);fill-opacity:1;" d="M 389.523438 441.75 L 389.523438 445.445312 C 399.714844 445.445312 408.003906 453.734375 408.003906 463.925781 C 408.003906 474.117188 399.714844 482.410156 389.523438 482.410156 L 389.523438 486.105469 C 401.753906 486.105469 411.703125 476.15625 411.703125 463.925781 C 411.703125 451.695312 401.753906 441.75 389.523438 441.75 Z M 389.523438 441.75 "/></g><path style=" stroke:none;fill-rule:nonzero;fill:rgb(43.528748%,75.689697%,99.609375%);fill-opacity:1;" d="M 400.613281 463.925781 C 400.613281 470.042969 395.640625 475.015625 389.523438 475.015625 L 389.523438 478.710938 C 397.675781 478.710938 404.308594 472.078125 404.308594 463.925781 C 404.308594 455.773438 397.675781 449.140625 389.523438 449.140625 L 389.523438 452.835938 C 395.640625 452.835938 400.613281 457.8125 400.613281 463.925781 Z M 400.613281 463.925781 "/><path style=" stroke:none;fill-rule:nonzero;fill:rgb(43.528748%,75.689697%,99.609375%);fill-opacity:1;" d="M 374.738281 462.078125 L 378.433594 462.078125 L 378.433594 465.773438 L 374.738281 465.773438 Z M 374.738281 462.078125 "/><path style=" stroke:none;fill-rule:nonzero;fill:rgb(43.528748%,75.689697%,99.609375%);fill-opacity:1;" d="M 367.34375 462.078125 L 371.042969 462.078125 L 371.042969 465.773438 L 367.34375 465.773438 Z M 367.34375 462.078125 "/><path style=" stroke:none;fill-rule:nonzero;fill:rgb(43.528748%,75.689697%,99.609375%);fill-opacity:1;" d="M 311.898438 463.925781 C 311.898438 468.003906 315.214844 471.320312 319.292969 471.320312 C 323.367188 471.320312 326.683594 468.003906 326.683594 463.925781 C 326.683594 459.847656 323.367188 456.535156 319.292969 456.535156 C 315.214844 456.535156 311.898438 459.847656 311.898438 463.925781 Z M 322.988281 463.925781 C 322.988281 465.964844 321.328125 467.621094 319.292969 467.621094 C 317.253906 467.621094 315.59375 465.964844 315.59375 463.925781 C 315.59375 461.890625 317.253906 460.230469 319.292969 460.230469 C 321.328125 460.230469 322.988281 461.890625 322.988281 463.925781 Z M 322.988281 463.925781 "/><g clip-rule="nonzero"><path style=" stroke:none;fill-rule:nonzero;fill:rgb(43.528748%,75.689697%,99.609375%);fill-opacity:1;" d="M 319.292969 482.410156 C 309.101562 482.410156 300.808594 474.117188 300.808594 463.925781 C 300.808594 453.734375 309.101562 445.445312 319.292969 445.445312 L 319.292969 441.75 C 307.0625 441.75 297.113281 451.695312 297.113281 463.925781 C 297.113281 476.15625 307.0625 486.105469 319.292969 486.105469 Z M 319.292969 482.410156 "/></g><path style=" stroke:none;fill-rule:nonzero;fill:rgb(43.528748%,75.689697%,99.609375%);fill-opacity:1;" d="M 319.292969 452.835938 L 319.292969 449.140625 C 311.140625 449.140625 304.507812 455.773438 304.507812 463.925781 C 304.507812 472.078125 311.140625 478.710938 319.292969 478.710938 L 319.292969 475.015625 C 313.175781 475.015625 308.203125 470.042969 308.203125 463.925781 C 308.203125 457.8125 313.175781 452.835938 319.292969 452.835938 Z M 319.292969 452.835938 "/><path style=" stroke:none;fill-rule:nonzero;fill:rgb(43.528748%,75.689697%,99.609375%);fill-opacity:1;" d="M 330.382812 462.078125 L 334.078125 462.078125 L 334.078125 465.773438 L 330.382812 465.773438 Z M 330.382812 462.078125 "/><path style=" stroke:none;fill-rule:nonzero;fill:rgb(43.528748%,75.689697%,99.609375%);fill-opacity:1;" d="M 337.773438 462.078125 L 341.46875 462.078125 L 341.46875 465.773438 L 337.773438 465.773438 Z M 337.773438 462.078125 "/></g></svg>