<?xml version="1.0" encoding="iso-8859-1"?>
<!-- Generator: Adobe Illustrator 19.0.0, SVG Export Plug-In . SVG Version: 6.00 Build 0)  -->
<svg version="1.1" id="Capa_1" xmlns="http://www.w3.org/2000/svg" xmlns:xlink="http://www.w3.org/1999/xlink" x="0px" y="0px"
	 viewBox="0 0 463 463" style="enable-background:new 0 0 463 463;" xml:space="preserve">
<g>
	<path d="M383.5,224h-89.647l-5.5-33H319.5c17.369,0,31.5-14.131,31.5-31.5v-32c0-17.369-14.131-31.5-31.5-31.5H303v-8.5
		c0-8.547-6.953-15.5-15.5-15.5h-64c-8.547,0-15.5,6.953-15.5,15.5V96h-3.094l-10.644-31.932C191.058,54.458,182.099,48,171.968,48
		h-13.488C154.805,20.933,131.558,0,103.5,0C72.897,0,48,24.897,48,55.5S72.897,111,103.5,111c28.058,0,51.305-20.933,54.979-48
		h13.488c3.665,0,6.905,2.336,8.064,5.812l9.095,27.287C172.863,97.317,160,110.93,160,127.5v32c0,17.369,14.131,31.5,31.5,31.5
		h31.147l-5.5,33H127.5c-17.369,0-31.5,14.131-31.5,31.5v176c0,17.369,14.131,31.5,31.5,31.5h256c17.369,0,31.5-14.131,31.5-31.5
		v-176C415,238.131,400.869,224,383.5,224z M103.5,96C81.168,96,63,77.832,63,55.5S81.168,15,103.5,15S144,33.168,144,55.5
		S125.832,96,103.5,96z M330.112,389.161C338.282,375.86,343,360.221,343,343.5s-4.718-32.36-12.888-45.661l67.954-50.072
		c1.23,2.309,1.934,4.939,1.934,7.732v176c0,2.793-0.703,5.424-1.934,7.732L330.112,389.161z M112.934,439.232
		c-1.23-2.309-1.934-4.939-1.934-7.732v-176c0-2.793,0.703-5.424,1.934-7.732l67.954,50.072C172.718,311.14,168,326.779,168,343.5
		s4.718,32.36,12.888,45.661L112.934,439.232z M183,343.5c0-39.977,32.523-72.5,72.5-72.5s72.5,32.523,72.5,72.5
		S295.477,416,255.5,416S183,383.477,183,343.5z M223,87.5c0-0.276,0.224-0.5,0.5-0.5h64c0.276,0,0.5,0.224,0.5,0.5V96h-65V87.5z
		 M175,159.5v-32c0-9.098,7.402-16.5,16.5-16.5h128c9.098,0,16.5,7.402,16.5,16.5v32c0,9.098-7.402,16.5-16.5,16.5h-128
		C182.402,176,175,168.598,175,159.5z M237.853,191h35.293l5.5,33h-46.293L237.853,191z M223.497,239
		c0.004,0,0.008,0.001,0.012,0.001c0.007,0,0.014-0.001,0.022-0.001h63.938c0.007,0,0.014,0.001,0.022,0.001
		c0.004,0,0.008-0.001,0.012-0.001H383.5c0.372,0,0.736,0.031,1.102,0.056l-63.404,46.719C305.15,267.533,281.648,256,255.5,256
		s-49.65,11.533-65.698,29.775l-63.404-46.719c0.366-0.024,0.73-0.056,1.102-0.056H223.497z M127.5,448
		c-0.372,0-0.736-0.031-1.102-0.056l63.404-46.719C205.85,419.467,229.352,431,255.5,431s49.65-11.533,65.698-29.775l63.404,46.719
		c-0.366,0.024-0.73,0.056-1.102,0.056H127.5z"/>
	<path d="M255.5,407c35.014,0,63.5-28.486,63.5-63.5S290.514,280,255.5,280S192,308.486,192,343.5S220.486,407,255.5,407z
		 M255.5,295c26.743,0,48.5,21.757,48.5,48.5S282.243,392,255.5,392S207,370.243,207,343.5S228.757,295,255.5,295z"/>
	<path d="M255.5,367c12.958,0,23.5-10.542,23.5-23.5S268.458,320,255.5,320S232,330.542,232,343.5S242.542,367,255.5,367z
		 M255.5,335c4.687,0,8.5,3.813,8.5,8.5s-3.813,8.5-8.5,8.5s-8.5-3.813-8.5-8.5S250.813,335,255.5,335z"/>
	<path d="M311.5,144h-112c-4.142,0-7.5,3.358-7.5,7.5s3.358,7.5,7.5,7.5h112c4.142,0,7.5-3.358,7.5-7.5S315.642,144,311.5,144z"/>
</g>
<g>
</g>
<g>
</g>
<g>
</g>
<g>
</g>
<g>
</g>
<g>
</g>
<g>
</g>
<g>
</g>
<g>
</g>
<g>
</g>
<g>
</g>
<g>
</g>
<g>
</g>
<g>
</g>
<g>
</g>
</svg>
